<svg height="18px" viewBox="0 0 20 16" fill="none" xmlns="http://www.w3.org/2000/svg">
    <path id="screen"
        d="M3.21875 3C3.09794 3 3 3.08706 3 3.19444V9.80556C3 9.91297 3.09794 10 3.21875 10H16.7812C16.9021 10 17 9.91297 17 9.80556V3.19444C17 3.08706 16.9021 3 16.7812 3H3.21875ZM4.75 4.55556H15.25V6.11111H4.75V4.55556ZM4.75 6.88889H12.625V7.73962V8.44444H4.75V6.88889Z"
        fill="#0068BB" />
    <path id="frame"
        d="M0.5 0C0.22386 0 0 0.22386 0 0.5V16H7V14H9V16H9.5H10H10.5H11V14H13V16H20V0.5C20 0.22386 19.7761 0 19.5 0H0.5ZM2 2H18V11H2C2 9.076 2 3.92405 2 2ZM3 13C4 13 4 13 4 14C4 15 4 15 3 15C2 15 2 15 2 14C2 13 2 13 3 13ZM17 13C18 13 18 13 18 14C18 15 18 15 17 15C16 15 16 15 16 14C16 13 16 13 17 13Z"
        fill="var(--fgColor-default, var(--color-fg-default, currentColor))" />
</svg>